<svg width="48" height="48" viewBox="0 0 48 48" fill="none" xmlns="http://www.w3.org/2000/svg"><path d="M42.699 22.043l-6.013-6.56a3.719 3.719 0 00-2.735-1.203H14.048a3.719 3.719 0 00-2.734 1.203L5.3 22.043a3.054 3.054 0 00-.118 3.967L22.45 47.263c.38.468.945.737 1.549.737s1.168-.269 1.549-.737L42.817 26.01a3.054 3.054 0 00-.118-3.967zm-8.416-6.332l-1.6 4.695a.703.703 0 001.33.454l1.542-4.523c.032.032.064.064.094.097l6.013 6.559a1.6 1.6 0 01.219.307h-9.304l-6.979-7.613h8.353a2.3 2.3 0 01.332.024zM30.669 23.3H17.331L24 16.024l6.67 7.276zm-8.268-7.613l-6.336 6.912-2.348-6.888a2.3 2.3 0 01.331-.024h8.353zm-10.05.747c.03-.034.061-.065.093-.097l2.374 6.963h-8.7c.061-.109.133-.212.22-.307l6.013-6.56zm-6.32 8.272h25.186L24 45.876l-6.408-18.797a.703.703 0 10-1.331.453l5.804 17.026-15.79-19.435a1.609 1.609 0 01-.244-.417zm19.904 19.852l6.767-19.852h9.267c-.06.148-.14.289-.244.417l-15.79 19.435zM24 11.177a.703.703 0 00.703-.703V.704a.703.703 0 00-1.406 0v9.77c0 .388.315.703.703.703zm-7.394.363a.703.703 0 101.258-.629l-3.006-6.013a.703.703 0 10-1.258.63l3.006 6.012zm13.844.314a.7.7 0 00.943-.314L34.4 5.527a.703.703 0 10-1.258-.629l-3.007 6.013a.703.703 0 00.315.943z" fill="#6701BA"/></svg>