<svg width="48" height="48" viewBox="0 0 48 48" fill="none" xmlns="http://www.w3.org/2000/svg"><g clip-path="url(#clip0_22_24)" fill="#6701BA"><path d="M45.797 7.347l-8.353-3.48a3.774 3.774 0 00-2.883 0l-4.011 1.67a.703.703 0 10.54 1.299l4.011-1.67a2.359 2.359 0 011.802 0l8.353 3.48c.813.338 1.338 1.1 1.338 1.94v30.07c0 1.17-1.005 2.121-2.239 2.121h-1.14a.703.703 0 100 1.407h1.14c2.01 0 3.645-1.582 3.645-3.527v-30.07c0-1.41-.865-2.682-2.203-3.24zM40.15 42.778H28.336a3.005 3.005 0 00.753-1.997c0-.741-.268-1.42-.712-1.947a3.035 3.035 0 001.653-2.697c0-.77-.29-1.474-.766-2.008a3.03 3.03 0 001.538-2.634c0-.768-.289-1.47-.762-2.004a3.008 3.008 0 001.548-2.64 3.028 3.028 0 00-3.024-3.025H25.41v-13.24c0-.84.525-1.602 1.337-1.94l1.279-.533a.703.703 0 10-.54-1.298l-1.28.532c-1.338.558-2.203 1.83-2.203 3.24v13.239h-2.937c.978-3.091.895-6.318-.247-10.063a2.714 2.714 0 00-.998-1.404 2.744 2.744 0 00-1.634-.535 2.73 2.73 0 00-1.998.858 2.73 2.73 0 00-.753 2.039c.22 4.228-1.73 5.683-4.429 7.697-.889.663-1.86 1.389-2.814 2.278v-.922a.703.703 0 00-.704-.703H.703a.703.703 0 00-.703.703v19.942c0 .388.315.703.703.703h6.788a.703.703 0 00.703-.703v-1.769c1.335.127 2.31.393 3.258 1.12a3.58 3.58 0 002.16.739h12.4a3.744 3.744 0 001.638.378h12.5a.703.703 0 100-1.406zm-27.842-.828c-1.326-1.016-2.743-1.298-4.114-1.416v-8.21a.703.703 0 10-1.407 0v10.689h-5.38V24.478h5.38v4.782a.703.703 0 101.407 0v-2.567c1.176-1.298 2.435-2.237 3.655-3.148 2.701-2.015 5.252-3.919 4.993-8.897-.02-.373.112-.727.369-.998.257-.27.604-.42.977-.42a1.346 1.346 0 011.287.944c1.163 3.814 1.145 7.024-.057 10.1a.703.703 0 00.655.959h8.49a1.62 1.62 0 011.146 2.762 1.61 1.61 0 01-1.145.475h-2.889a.703.703 0 100 1.406h2.102a1.62 1.62 0 011.145 2.763 1.607 1.607 0 01-1.145.474h-2.102a.703.703 0 100 1.407h1.33a1.62 1.62 0 011.145 2.762 1.608 1.608 0 01-1.144.475h-2.102a.703.703 0 100 1.406h1.16a1.62 1.62 0 011.145 2.763c-.285.285-.736.466-1.074.472l-12.523.002c-.463 0-.926-.16-1.304-.45z"/><path d="M38.54 10.899a2.683 2.683 0 00-2.68-2.68 2.683 2.683 0 00-2.68 2.68 2.683 2.683 0 002.68 2.68 2.683 2.683 0 002.68-2.68zm-3.953 0a1.274 1.274 0 012.547 0 1.275 1.275 0 01-2.547 0zM36.3 34.89h-1.261c-.665 0-1.205-.54-1.205-1.204a.703.703 0 10-1.406 0 2.613 2.613 0 002.538 2.609v1.556a.703.703 0 101.406 0v-1.556a2.613 2.613 0 002.538-2.61v-.973c0-.903-.577-1.697-1.435-1.976l-3.177-1.032a.67.67 0 01-.464-.639v-1.393a.98.98 0 01.978-.979h1.714a.98.98 0 01.978.979.703.703 0 101.407 0 2.387 2.387 0 00-2.385-2.385h-.154v-1.554a.703.703 0 10-1.406 0v1.554h-.154a2.387 2.387 0 00-2.384 2.385v1.393c0 .903.577 1.697 1.436 1.977l3.176 1.031a.67.67 0 01.464.64v.973c0 .664-.54 1.204-1.204 1.204z"/></g><defs><clipPath id="clip0_22_24"><path fill="#fff" d="M0 0h48v48H0z"/></clipPath></defs></svg>