<svg width="190" height="84" viewBox="0 0 190 84" fill="none" xmlns="http://www.w3.org/2000/svg"><path d="M41.943 34v6.83h-9.23V69H24.23V40.83H15V34h26.943zm17.307 0c3.672 0 6.881.731 9.627 2.194 2.745 1.462 4.862 3.523 6.35 6.182 1.522 2.626 2.283 5.667 2.283 9.124 0 3.424-.76 6.465-2.282 9.124-1.489 2.659-3.622 4.72-6.401 6.182C66.082 68.27 62.889 69 59.251 69H46.2V34h13.05zm-.545 27.621c3.209 0 5.706-.88 7.492-2.642 1.787-1.762 2.68-4.255 2.68-7.479s-.893-5.734-2.68-7.529c-1.786-1.794-4.284-2.692-7.492-2.692h-4.02v20.342h4.02zm45.23 1.197h-13L88.851 69H79.97l12.604-35h9.824L115 69h-8.981l-2.084-6.182zm-2.183-6.581l-4.317-12.814-4.267 12.813h8.584z" fill="#82BA01"/><rect x="1" y="1" width="188" height="82" rx="5" stroke="#82BA01" stroke-width="2"/></svg>